# xmcd
#
# Track frame offsets: 
#        150
#        18310
#        35100
#        48815
#        60530
#        69927
#        87970
#        105227
#        121787
#        137075
#        156197
#
# Disc length: 2302 seconds
#
# Revision: 2
# Processed by: cddbd v1.5.2PL0 Copyright (c) Steve Scherf et al.
# Submitted via: ExactAudioCopy v1.3
#
DISCID=8308fc0b
DTITLE=Clinic - Walking with Thee
DYEAR=2002
DGENRE=Rock
TTITLE0=Harmony
TTITLE1=The Equaliser
TTITLE2=Welcome
TTITLE3=Walking with Thee
TTITLE4=Pet Eunuch
TTITLE5=Mr. Moonlight
TTITLE6=Come into Our Room
TTITLE7=The Vulture
TTITLE8=The Bridge
TTITLE9=Sunlight Bathes Our Home
TTITLE10=For the Wars
EXTD=
EXTT0=
EXTT1=
EXTT2=
EXTT3=
EXTT4=
EXTT5=
EXTT6=
EXTT7=
EXTT8=
EXTT9=
EXTT10=
PLAYORDER=
